<?xml version="1.0" encoding="utf-8"?>
<!-- Generator: Adobe Illustrator 26.0.3, SVG Export Plug-In . SVG Version: 6.00 Build 0)  -->
<svg version="1.1" id="Layer_1" xmlns="http://www.w3.org/2000/svg" xmlns:xlink="http://www.w3.org/1999/xlink" x="0px" y="0px"
	 viewBox="0 0 162.4 11.8" style="enable-background:new 0 0 162.4 11.8;" xml:space="preserve">
<style type="text/css">
	.st0{fill:#6094CE;}
	.st1{fill:#DFDFDC;}
	.st2{fill:#010101;}
</style>
<g>
	<g>
		<g>
			<g>
				<path class="st0" d="M78.1,5.2c0,0.8-0.6,1.4-1.4,1.4c-0.8,0-1.4-0.6-1.4-1.4c0-0.8,0.6-1.4,1.4-1.4C77.5,3.9,78.1,4.5,78.1,5.2
					z"/>
			</g>
			<path class="st1" d="M83.7,5.2c0,0.8-0.6,1.4-1.4,1.4c-0.8,0-1.4-0.6-1.4-1.4c0-0.8,0.6-1.4,1.4-1.4C83.1,3.9,83.7,4.5,83.7,5.2z
				"/>
			<path class="st1" d="M89.3,5.2c0,0.8-0.6,1.4-1.4,1.4c-0.8,0-1.4-0.6-1.4-1.4c0-0.8,0.6-1.4,1.4-1.4C88.6,3.9,89.3,4.5,89.3,5.2z
				"/>
		</g>
	</g>
	<g>
		<g>
			<path class="st2" d="M162.1,11.8c-0.1,0-0.2,0-0.2-0.1l-4.2-4.6l-4.4,4.6c-0.1,0.1-0.2,0.1-0.3,0.1c-0.1,0-0.2-0.2-0.2-0.3V0.3
				c0-0.2,0.1-0.3,0.3-0.3h9c0.2,0,0.3,0.1,0.3,0.3v11.2c0,0.1-0.1,0.2-0.2,0.3C162.2,11.8,162.2,11.8,162.1,11.8z M153.4,0.6v10.1
				l4.1-4.3c0.1-0.1,0.1-0.1,0.2-0.1c0.1,0,0.2,0,0.2,0.1l3.9,4.3V0.6H153.4z"/>
		</g>
		<g>
			<g>
				<g>
					<g>
						<path class="st2" d="M42.9,9.9C42.9,9.9,42.8,9.9,42.9,9.9c-0.2,0-0.3-0.1-0.3-0.2L41.4,5l-3.2-3.6c-0.1-0.1-0.1-0.2-0.1-0.3
							c0-0.1,0.1-0.2,0.3-0.2L49,0.6c0.1,0,0.2,0.1,0.3,0.2c0.1,0.1,0,0.2,0,0.3l-6.1,8.7C43.1,9.8,43,9.9,42.9,9.9z M39,1.5
							l2.8,3.1c0,0,0.1,0.1,0.1,0.1L43,8.9l5.4-7.7L39,1.5z"/>
					</g>
					<g>
						<path class="st2" d="M41.7,5.2c-0.1,0-0.2-0.1-0.3-0.2c-0.1-0.1,0-0.3,0.1-0.4L48.1,1c0.1-0.1,0.3,0,0.4,0.1
							c0.1,0.1,0,0.3-0.1,0.4l-6.6,3.6C41.8,5.2,41.7,5.2,41.7,5.2z"/>
					</g>
				</g>
			</g>
			<g>
				<path class="st2" d="M5.7,9.9c-0.1,0-0.1,0-0.2-0.1c-0.2-0.1-4.1-3.3-5-4.7C0,4.2-0.3,2.6,0.4,1.4C0.7,0.8,1.5,0,3,0
					c1.5,0,2.3,0.8,2.7,1.3C6.1,0.8,6.9,0,8.4,0c1.5,0,2.3,0.8,2.6,1.4c0.7,1.2,0.4,2.8-0.1,3.7c-0.9,1.4-4.8,4.6-5,4.7
					C5.8,9.8,5.8,9.9,5.7,9.9z M3,0.6C2,0.6,1.3,1,0.9,1.7C0.4,2.7,0.6,4,1,4.7c0.7,1.1,3.9,3.8,4.7,4.4c0.8-0.7,3.9-3.3,4.7-4.4
					C10.8,4,11,2.7,10.5,1.7C10.1,1,9.4,0.6,8.4,0.6C6.5,0.6,6,2.1,6,2.1c0,0.1-0.2,0.2-0.3,0.2c-0.1,0-0.2-0.1-0.3-0.2
					C5.4,2,4.9,0.6,3,0.6z"/>
			</g>
			<g>
				<path class="st2" d="M27.9,10.4C27.9,10.4,27.8,10.4,27.9,10.4l-1.8-0.5c-0.7,0.3-1.4,0.5-2.1,0.5c-2.8,0-5.1-2.3-5.1-5.1
					s2.3-5.1,5.1-5.1c2.8,0,5.1,2.3,5.1,5.1c0,1.3-0.5,2.6-1.4,3.5l0.4,1.2c0,0.1,0,0.2-0.1,0.3C28.1,10.4,28,10.4,27.9,10.4z
					 M24,0.7c-2.5,0-4.5,2-4.5,4.5s2,4.5,4.5,4.5c0.7,0,1.4-0.2,2-0.5c0.1,0,0.1,0,0.2,0l1.2,0.3l-0.3-0.9c0-0.1,0-0.2,0.1-0.3
					c0.9-0.9,1.3-2,1.3-3.2C28.5,2.7,26.5,0.7,24,0.7z"/>
			</g>
		</g>
	</g>
</g>
</svg>
