<?xml version="1.0" encoding="utf-8"?>
<!-- Generator: Adobe Illustrator 26.0.3, SVG Export Plug-In . SVG Version: 6.00 Build 0)  -->
<svg version="1.1" id="Layer_1" xmlns="http://www.w3.org/2000/svg" xmlns:xlink="http://www.w3.org/1999/xlink" x="0px" y="0px"
	 viewBox="0 0 184.6 323.5" style="enable-background:new 0 0 184.6 323.5;" xml:space="preserve">
<style type="text/css">
	.st0{fill:#FFFFFF;}
</style>
<g>
	<polygon class="st0" points="29.8,305.1 28.4,305.1 28.4,311.8 23.7,311.8 23.7,307.1 21.7,307.1 21.7,311.8 17,311.8 17,305.1 
		15.6,305.1 22.7,299.3 	"/>
</g>
<path class="st0" d="M56.3,308.1c-0.8,0.6-1.7,0.9-2.9,0.9c-2.9,0-5.2-2.3-5.2-5.2s2.3-5.2,5.2-5.2s5.2,2.3,5.2,5.2
	c0,1.3-0.3,2.2-1,3.1l4.1,4l-1.3,1.3L56.3,308.1z M53.4,300.5c-1.9,0-3.4,1.5-3.4,3.4c0,1.8,1.6,3.4,3.4,3.4c1.9,0,3.5-1.6,3.5-3.4
	S55.3,300.5,53.4,300.5z M166.2,311.1c-0.7-2.1-2.6-3.5-4.7-3.5l-0.2,0c-2.1,0-4,1.4-4.5,3.4l-0.1,0.3l-1.4-0.3l0.1-0.3
	c0.8-2.7,3.2-4.5,6.1-4.5s5.2,1.8,6.1,4.5l0.1,0.3l-1.4,0.5L166.2,311.1z M125.2,307.8h-4.6v-9.3h13.5v9.2h-4.6l-2.2,3.5
	L125.2,307.8z M126.1,306.3l1.2,2l1.2-2h4.1V300H122v6.3H126.1z M161.5,305.3c-2.1,0-3.7-1.6-3.7-3.7c0-2.1,1.6-3.7,3.7-3.7
	c2.1,0,3.7,1.6,3.7,3.7C165.2,303.6,163.5,305.3,161.5,305.3z M161.5,299.5c-1.2,0-2.2,1-2.2,2.2s1,2.2,2.2,2.2s2.2-1,2.2-2.2
	S162.7,299.5,161.5,299.5z M124.6,304.2v-1.5h5.5v1.5H124.6z"/>
<g>
	<g>
		<path class="st0" d="M52.4,15h3.8v0.9h-2.7v1.8h2.3v0.9h-2.3v2.6h-1.1V15z"/>
		<path class="st0" d="M56.7,18.9c0-1.6,1.1-2.5,2.3-2.5s2.3,0.9,2.3,2.5s-1.1,2.5-2.3,2.5S56.7,20.5,56.7,18.9z M60.1,18.9
			c0-1-0.4-1.6-1.1-1.6s-1.1,0.6-1.1,1.6c0,0.9,0.4,1.6,1.1,1.6S60.1,19.9,60.1,18.9z"/>
		<path class="st0" d="M62.3,20.1v-5.6h1.1v5.7c0,0.3,0.1,0.4,0.2,0.4c0,0,0.1,0,0.2,0l0.1,0.8c-0.1,0.1-0.3,0.1-0.6,0.1
			C62.6,21.4,62.3,20.9,62.3,20.1z"/>
		<path class="st0" d="M65,20.1v-5.6h1.1v5.7c0,0.3,0.1,0.4,0.2,0.4c0,0,0.1,0,0.2,0l0.1,0.8c-0.1,0.1-0.3,0.1-0.6,0.1
			C65.2,21.4,65,20.9,65,20.1z"/>
		<path class="st0" d="M67.3,18.9c0-1.6,1.1-2.5,2.3-2.5c1.2,0,2.3,0.9,2.3,2.5s-1.1,2.5-2.3,2.5C68.3,21.4,67.3,20.5,67.3,18.9z
			 M70.6,18.9c0-1-0.4-1.6-1.1-1.6s-1.1,0.6-1.1,1.6c0,0.9,0.4,1.6,1.1,1.6S70.6,19.9,70.6,18.9z"/>
		<path class="st0" d="M72.4,16.6h1.1L74,19c0.1,0.5,0.2,0.9,0.3,1.4l0,0c0.1-0.5,0.2-0.9,0.3-1.4l0.6-2.5h1l0.6,2.5
			c0.1,0.5,0.2,0.9,0.3,1.4l0,0c0.1-0.5,0.2-0.9,0.3-1.4l0.6-2.5h1l-1.2,4.7h-1.3L76,19.1c-0.1-0.4-0.2-0.9-0.3-1.4l0,0
			c-0.1,0.5-0.2,0.9-0.3,1.4l-0.5,2.2h-1.3L72.4,16.6z"/>
		<path class="st0" d="M79.9,15.1c0-0.4,0.3-0.6,0.7-0.6s0.7,0.3,0.7,0.6c0,0.4-0.3,0.6-0.7,0.6S79.9,15.5,79.9,15.1z M80.1,16.6
			h1.1v4.7h-1.1V16.6z"/>
		<path class="st0" d="M82.6,16.6h0.9l0.1,0.6l0,0c0.4-0.4,0.9-0.8,1.6-0.8c1,0,1.5,0.7,1.5,1.9v3h-1.1v-2.8c0-0.8-0.2-1.1-0.7-1.1
			c-0.4,0-0.7,0.2-1.1,0.6v3.3h-1.1v-4.7H82.6z"/>
		<path class="st0" d="M87.7,22.2c0-0.4,0.2-0.7,0.7-1l0,0C88.2,21,88,20.8,88,20.4s0.3-0.7,0.5-0.9l0,0c-0.3-0.2-0.6-0.7-0.6-1.3
			c0-1.1,0.9-1.7,1.9-1.7c0.3,0,0.5,0,0.7,0.1h1.7v0.8h-0.9c0.2,0.2,0.3,0.5,0.3,0.8c0,1.1-0.8,1.6-1.8,1.6c-0.2,0-0.4,0-0.6-0.1
			c-0.1,0.1-0.2,0.2-0.2,0.5s0.2,0.4,0.8,0.4h0.8c1.1,0,1.7,0.3,1.7,1.2c0,0.9-1,1.7-2.5,1.7C88.5,23.4,87.7,23,87.7,22.2z
			 M91.1,21.9c0-0.4-0.3-0.5-0.8-0.5h-0.6c-0.3,0-0.5,0-0.6-0.1c-0.3,0.2-0.4,0.4-0.4,0.6c0,0.4,0.5,0.7,1.2,0.7
			C90.6,22.7,91.1,22.3,91.1,21.9z M90.5,18.1c0-0.6-0.4-0.9-0.8-0.9c-0.5,0-0.8,0.3-0.8,0.9s0.4,1,0.8,1
			C90.2,19.1,90.5,18.8,90.5,18.1z"/>
		<path class="st0" d="M100.8,15.4h3.6v0.9h-2.5V18h2.2v0.9h-2.2v2.5h-1L100.8,15.4L100.8,15.4z"/>
		<path class="st0" d="M104.9,19.1c0-1.5,1-2.3,2.1-2.3s2.1,0.9,2.1,2.3c0,1.5-1,2.3-2.1,2.3S104.9,20.6,104.9,19.1z M108.1,19.1
			c0-0.9-0.4-1.5-1-1.5c-0.7,0-1,0.6-1,1.5s0.4,1.5,1,1.5S108.1,20,108.1,19.1z"/>
		<path class="st0" d="M110.2,16.9h0.9l0.1,0.8l0,0c0.3-0.6,0.8-0.9,1.3-0.9c0.2,0,0.4,0,0.5,0.1l-0.2,0.9c-0.2,0-0.3-0.1-0.5-0.1
			c-0.4,0-0.8,0.2-1,0.9v2.7h-1v-4.4H110.2z"/>
		<path class="st0" d="M116.4,19.1l-1.8-3.7h1.1l0.6,1.5c0.2,0.4,0.3,0.9,0.5,1.3l0,0c0.2-0.5,0.4-0.9,0.5-1.3l0.6-1.5h1.1l-1.8,3.7
			v2.2h-1v-2.2H116.4z"/>
		<path class="st0" d="M119.2,19.1c0-1.5,1-2.3,2.1-2.3s2.1,0.9,2.1,2.3c0,1.5-1,2.3-2.1,2.3S119.2,20.6,119.2,19.1z M122.3,19.1
			c0-0.9-0.4-1.5-1-1.5c-0.7,0-1,0.6-1,1.5s0.4,1.5,1,1.5S122.3,20,122.3,19.1z"/>
		<path class="st0" d="M124.4,19.6v-2.8h1v2.7c0,0.7,0.2,1,0.7,1c0.4,0,0.7-0.2,1-0.6v-3h1v4.4h-0.9l-0.1-0.7l0,0
			c-0.4,0.5-0.8,0.8-1.4,0.8C124.8,21.4,124.4,20.8,124.4,19.6z"/>
	</g>
	<g>
		<path class="st0" d="M98.4,18.5c0,0.4-0.3,0.7-0.7,0.7c-0.4,0-0.7-0.3-0.7-0.7c0-0.4,0.3-0.7,0.7-0.7C98,17.7,98.4,18.1,98.4,18.5
			z"/>
	</g>
</g>
<g>
	<g>
		<path class="st0" d="M169.3,123.3l-6.1,6.1l-6.1-6.1c-4.6-4.8,0.9-11.5,6.1-6.5C168.4,111.8,173.9,118.4,169.3,123.3z"/>
	</g>
	<g>
		<path class="st0" d="M163.2,149.7c-4.5,0-8.1,3.3-8.1,7.4c0,4,3.5,7.3,8,7.4c-0.7,2-0.9,3.7,1.2,3.1c2.8-0.8,4.9-4.4,6-6.9
			c0,0,0,0,0-0.1c0.4-0.7,0.7-1.4,0.9-2.2c0-0.1,0-0.1,0-0.1c0.1-0.4,0.1-0.8,0.1-1.2C171.3,153,167.6,149.7,163.2,149.7z
			 M158.6,158.5c-0.8,0-1.4-0.6-1.4-1.4c0-0.8,0.6-1.5,1.4-1.5c0.8,0,1.5,0.6,1.5,1.5C160.1,157.9,159.5,158.5,158.6,158.5z
			 M163.2,158.5c-0.8,0-1.5-0.6-1.5-1.4c0-0.8,0.6-1.5,1.5-1.5c0.8,0,1.5,0.6,1.5,1.5C164.6,157.9,164,158.5,163.2,158.5z
			 M167.7,158.5c-0.8,0-1.5-0.6-1.5-1.4c0-0.8,0.6-1.5,1.5-1.5c0.8,0,1.5,0.6,1.5,1.5C169.1,157.9,168.5,158.5,167.7,158.5z"/>
	</g>
	<path class="st0" d="M172.8,198.6l-6.3,6.3c-0.9,0.8-2.2,0.2-2.2-0.9v-2.4h-1.8c-3.5,0-6.7,1.9-8.3,5l-1,1.9v-6.1
		c0-5.2,4.2-9.4,9.4-9.4h1.7v-1.6c0-1.2,1.4-1.7,2.2-0.9l6.3,6.3C173.3,197.2,173.3,198.1,172.8,198.6z"/>
</g>
</svg>
